STARTFONT 2.1
FONT -sun-timmons-bold-i-normal--24-240-75-75-p-133-adobe-fontspecific
SIZE 24 75 75
FONTBOUNDINGBOX 32 28 -5 -5

STARTPROPERTIES 28
FOUNDRY "sun"
FAMILY_NAME "timmons"
WEIGHT_NAME "bold"
SLANT "i"
SETWIDTH_NAME "normal"
ADD_STYLE_NAME ""
PIXEL_SIZE 25
POINT_SIZE 240
RESOLUTION_X 75
RESOLUTION_Y 75
SPACING "p"
AVERAGE_WIDTH 133
CHARSET_REGISTRY "adobe"
CHARSET_ENCODING "fontspecific"
COPYRIGHT "© 1999 Sun Microsystems, Inc."
RAW_PIXELSIZE 1000
RAW_POINTSIZE 964
RAW_ASCENT 932
RAW_DESCENT 200
RAW_AVERAGE_WIDTH 5346
FACE_NAME "TimmonsBoldItalicdensedN5"
_XMBDFED_INFO "Edited with xmbdfed 2.4."
WEIGHT 10
X_HEIGHT -2
QUAD_WIDTH 13
DEFAULT_CHAR 4
FONT_DESCENT 5
FONT_ASCENT 23
ENDPROPERTIES

CHARS 206

STARTCHAR char32
ENCODING 32
SWIDTH 25 0
DWIDTH 7 0
BBX 0 0 0 0
BITMAP
ENDCHAR

STARTCHAR char33
ENCODING 33
SWIDTH 28 0
DWIDTH 8 0
BBX 7 18 3 0
BITMAP
04
0E
1E
1E
1C
1C
18
18
10
10
10
10
20
00
40
E0
E0
40
ENDCHAR

STARTCHAR char34
ENCODING 34
SWIDTH 6 0
DWIDTH 12 0
BBX 10 8 4 10
BITMAP
2080
71C0
71C0
30C0
2080
2100
C200
8200
ENDCHAR

STARTCHAR char35
ENCODING 35
SWIDTH 10 0
DWIDTH 13 0
BBX 12 19 0 0
BITMAP
0C60
0C60
0C60
0C60
0C40
7FF0
7FF0
08C0
18C0
18C0
18C0
1880
FFF0
FFF0
1180
3180
3180
3180
3180
ENDCHAR

STARTCHAR char36
ENCODING 36
SWIDTH 10 0
DWIDTH 13 0
BBX 14 24 0 -3
BITMAP
0020
0020
0020
03F0
077C
0E4C
1C4C
1C44
1E44
1F80
0F80
07C0
03E0
01E0
01F0
4370
4270
6270
6460
F4E0
7F80
0C00
0800
0800
ENDCHAR

STARTCHAR char37
ENCODING 37
SWIDTH 31 0
DWIDTH 19 0
BBX 17 18 2 0
BITMAP
0E0400
1B0800
330800
731000
731000
E32000
E66000
E64700
C6CD80
CC9980
499980
311980
033180
023300
063300
043200
0C3600
081C00
ENDCHAR

STARTCHAR char38
ENCODING 38
SWIDTH 35 0
DWIDTH 20 0
BBX 16 18 2 0
BITMAP
00F8
03BC
031C
073C
0738
0770
07E0
0780
0F9F
1B8E
33CC
63CC
E3F8
E1F0
F1F0
F0F9
7F7F
3C3E
ENDCHAR

STARTCHAR char39
ENCODING 39
SWIDTH 21 0
DWIDTH 6 0
BBX 4 8 5 10
BITMAP
10
20
40
C0
E0
E0
E0
40
ENDCHAR

STARTCHAR char40
ENCODING 40
SWIDTH 32 0
DWIDTH 9 0
BBX 10 22 3 -3
BITMAP
0040
0180
0300
0600
0E00
1C00
3C00
3800
7800
7000
F000
F000
F000
E000
E000
E000
E000
6000
6000
2000
2000
1000
ENDCHAR

STARTCHAR char41
ENCODING 41
SWIDTH 32 0
DWIDTH 9 0
BBX 10 22 -2 -3
BITMAP
0100
0100
0180
0180
0180
01C0
01C0
01C0
01C0
01C0
01C0
01C0
03C0
0380
0380
0780
0700
0E00
0C00
1800
3000
4000
ENDCHAR

STARTCHAR char42
ENCODING 42
SWIDTH 6 0
DWIDTH 12 0
BBX 9 9 5 9
BITMAP
0600
0E00
CE00
EC00
FB80
1F80
7500
E600
C600
ENDCHAR

STARTCHAR char43
ENCODING 43
SWIDTH 24 0
DWIDTH 17 0
BBX 15 15 2 0
BITMAP
0300
0300
0300
0300
0300
0300
0300
FFFE
FFFE
0300
0300
0300
0300
0300
0300
ENDCHAR

STARTCHAR char44
ENCODING 44
SWIDTH 21 0
DWIDTH 6 0
BBX 5 8 0 -4
BITMAP
10
38
38
18
18
10
60
80
ENDCHAR

STARTCHAR char45
ENCODING 45
SWIDTH 32 0
DWIDTH 9 0
BBX 8 3 2 6
BITMAP
FE
FE
FE
ENDCHAR

STARTCHAR char46
ENCODING 46
SWIDTH 21 0
DWIDTH 6 0
BBX 3 4 2 0
BITMAP
40
E0
E0
40
ENDCHAR

STARTCHAR char47
ENCODING 47
SWIDTH 3 0
DWIDTH 11 0
BBX 10 18 2 0
BITMAP
00C0
0180
0180
0380
0300
0300
0600
0600
0C00
0C00
1C00
1800
1800
3000
3000
6000
6000
E000
ENDCHAR

STARTCHAR char48
ENCODING 48
SWIDTH 6 0
DWIDTH 12 0
BBX 12 18 2 0
BITMAP
03C0
0E60
1C60
1C70
3870
3870
78F0
70F0
F0F0
F0E0
E1E0
E1E0
E1C0
E3C0
C380
C700
6600
3C00
ENDCHAR

STARTCHAR char49
ENCODING 49
SWIDTH 6 0
DWIDTH 12 0
BBX 11 18 1 0
BITMAP
00E0
0FC0
0BC0
03C0
0380
0380
0380
0780
0700
0700
0F00
0E00
0E00
0E00
1E00
1C00
3E00
FF00
ENDCHAR

STARTCHAR char50
ENCODING 50
SWIDTH 6 0
DWIDTH 12 0
BBX 11 18 1 0
BITMAP
0780
0FC0
1FE0
31E0
00E0
00E0
00E0
00C0
01C0
0380
0300
0600
0C00
1840
3180
7F80
FF80
FF00
ENDCHAR

STARTCHAR char51
ENCODING 51
SWIDTH 6 0
DWIDTH 12 0
BBX 11 18 1 0
BITMAP
03C0
07E0
08E0
00E0
00E0
00E0
01C0
0700
1F80
07C0
03C0
01C0
01C0
01C0
0180
4380
F300
7C00
ENDCHAR

STARTCHAR char52
ENCODING 52
SWIDTH 6 0
DWIDTH 12 0
BBX 12 18 1 0
BITMAP
0030
0070
00F0
01E0
01E0
02E0
05E0
09C0
19C0
33C0
2380
4380
7FE0
FFE0
0700
0700
0F00
0E00
ENDCHAR

STARTCHAR char53
ENCODING 53
SWIDTH 6 0
DWIDTH 12 0
BBX 12 18 1 0
BITMAP
07F0
07F0
07E0
0800
0800
1C00
1F00
3F80
07C0
03C0
01C0
01C0
01C0
0180
0180
4100
F200
7C00
ENDCHAR

STARTCHAR char54
ENCODING 54
SWIDTH 6 0
DWIDTH 12 0
BBX 11 18 2 0
BITMAP
00E0
03C0
0700
0E00
1C00
3800
3800
7F80
7180
F1C0
E1C0
E1C0
E1C0
E1C0
E380
E380
6700
3E00
ENDCHAR

STARTCHAR char55
ENCODING 55
SWIDTH 6 0
DWIDTH 12 0
BBX 11 18 3 0
BITMAP
3FE0
3FE0
7FE0
60C0
8080
0180
0300
0300
0600
0400
0C00
0800
1800
3000
3000
6000
4000
C000
ENDCHAR

STARTCHAR char56
ENCODING 56
SWIDTH 6 0
DWIDTH 12 0
BBX 12 18 1 0
BITMAP
03C0
0660
0E70
1C70
1E70
1E70
1E60
0FC0
0780
1FC0
33C0
71C0
E1C0
E1C0
E1C0
E1C0
7380
3E00
ENDCHAR

STARTCHAR char57
ENCODING 57
SWIDTH 6 0
DWIDTH 12 0
BBX 12 18 2 0
BITMAP
0780
1EE0
1C60
3870
7870
7070
70F0
70F0
70E0
79E0
3FE0
05C0
03C0
0780
0700
0E00
3C00
E000
ENDCHAR

STARTCHAR char58
ENCODING 58
SWIDTH 28 0
DWIDTH 8 0
BBX 6 12 2 0
BITMAP
08
1C
1C
08
00
00
00
00
60
E0
E0
60
ENDCHAR

STARTCHAR char59
ENCODING 59
SWIDTH 28 0
DWIDTH 8 0
BBX 7 16 1 -4
BITMAP
04
0E
0E
04
00
00
00
00
30
78
78
38
30
30
60
80
ENDCHAR

STARTCHAR char60
ENCODING 60
SWIDTH 17 0
DWIDTH 15 0
BBX 13 13 0 0
BITMAP
0008
0038
00F0
03C0
0E00
7800
E000
7000
1E00
0780
01E0
0078
0008
ENDCHAR

STARTCHAR char61
ENCODING 61
SWIDTH 24 0
DWIDTH 17 0
BBX 17 7 1 4
BITMAP
FFFF80
FFFF80
000000
000000
000000
FFFF80
FFFF80
ENDCHAR

STARTCHAR char62
ENCODING 62
SWIDTH 17 0
DWIDTH 15 0
BBX 12 13 1 0
BITMAP
8000
E000
7800
1E00
0780
00E0
0030
00F0
03C0
0F00
3C00
E000
8000
ENDCHAR

STARTCHAR char63
ENCODING 63
SWIDTH 6 0
DWIDTH 12 0
BBX 9 18 4 0
BITMAP
0E00
3300
3380
3380
3380
0780
0F00
0E00
1C00
1800
2000
2000
2000
0000
4000
E000
E000
4000
ENDCHAR

STARTCHAR char64
ENCODING 64
SWIDTH 24 0
DWIDTH 27 0
BBX 18 18 4 0
BITMAP
07F800
1C0E00
300700
600180
63ED80
C7FCC0
CE1CC0
CC18C0
DC18C0
D818C0
D83180
D83100
DC7300
4FFE00
679980
300300
1C0C00
07F000
ENDCHAR

STARTCHAR char65
ENCODING 65
SWIDTH 24 0
DWIDTH 17 0
BBX 16 18 -1 0
BITMAP
0001
0003
0007
000F
000F
0017
0027
0067
00C6
008E
010E
03FE
060E
040E
080E
180E
381E
FC7F
ENDCHAR

STARTCHAR char66
ENCODING 66
SWIDTH 21 0
DWIDTH 16 0
BBX 17 18 -1 0
BITMAP
07FE00
03FF00
03C780
03C380
03C380
038780
078700
078E00
07F000
0F3800
0F0C00
0F0E00
0E0E00
1E0E00
1E1E00
1E3C00
3C7800
FFF000
ENDCHAR

STARTCHAR char67
ENCODING 67
SWIDTH 28 0
DWIDTH 18 0
BBX 17 18 3 0
BITMAP
00FF80
038780
0F0300
1E0300
3C0100
380000
780000
700000
F00000
E00000
E00000
E00000
E00000
F00000
700400
780800
3C3000
0FC000
ENDCHAR

STARTCHAR char68
ENCODING 68
SWIDTH 28 0
DWIDTH 18 0
BBX 18 18 -1 0
BITMAP
07FC00
03FF00
03C700
03C380
03C180
03C1C0
0781C0
0781C0
0781C0
0F01C0
0F03C0
0F0380
0F0380
1E0700
1E0E00
1E1C00
3E3800
FFE000
ENDCHAR

STARTCHAR char69
ENCODING 69
SWIDTH 21 0
DWIDTH 16 0
BBX 18 18 -1 0
BITMAP
07FFC0
03E3C0
01E1C0
03C080
03C080
03C200
038400
078C00
07FC00
071C00
0F0800
0F0800
0F0000
1E0100
1E0200
1E0600
3E1E00
7FFC00
ENDCHAR

STARTCHAR char70
ENCODING 70
SWIDTH 10 0
DWIDTH 13 0
BBX 16 18 0 0
BITMAP
0FFF
03C7
03C3
0782
0780
0788
0788
0F10
0FF0
0F30
0E20
1E20
1E00
1E00
3C00
3C00
3C00
FF00
ENDCHAR

STARTCHAR char71
ENCODING 71
SWIDTH 31 0
DWIDTH 19 0
BBX 18 18 3 0
BITMAP
00FEC0
038780
0F0180
1E0180
3C0100
780000
780000
F00000
F00000
E07F00
E03E00
E03C00
E03C00
E03C00
703800
787800
3C7800
0FE000
ENDCHAR

STARTCHAR char72
ENCODING 72
SWIDTH 31 0
DWIDTH 19 0
BBX 23 18 -1 0
BITMAP
07F9FE
03E0F8
03C070
03C0F0
03C0F0
0380F0
0781E0
0781E0
07FFE0
0F03C0
0F03C0
0F03C0
0E03C0
1E0780
1E0780
1E0780
3E0F80
FF3FC0
ENDCHAR

STARTCHAR char73
ENCODING 73
SWIDTH 32 0
DWIDTH 9 0
BBX 12 18 0 0
BITMAP
0FF0
07E0
03C0
03C0
0780
0780
0780
0F00
0F00
0F00
0E00
1E00
1E00
1E00
3C00
3C00
3C00
7F00
ENDCHAR

STARTCHAR char74
ENCODING 74
SWIDTH 3 0
DWIDTH 11 0
BBX 14 18 0 0
BITMAP
03FC
00F8
00F0
00F0
00F0
01E0
01E0
01E0
03C0
03C0
03C0
0380
0780
4780
E700
EF00
EE00
7C00
ENDCHAR

STARTCHAR char75
ENCODING 75
SWIDTH 24 0
DWIDTH 17 0
BBX 20 18 -1 0
BITMAP
07FBF0
03E1C0
03C180
03C300
03C400
03C800
079000
07F000
07F000
077000
0F7800
0F7800
0F3C00
1E3C00
1E3C00
1E1E00
3E1E00
7F3F00
ENDCHAR

STARTCHAR char76
ENCODING 76
SWIDTH 21 0
DWIDTH 16 0
BBX 16 18 -1 0
BITMAP
07F8
03E0
01E0
03C0
03C0
03C0
0780
0780
0780
0700
0F00
0F00
0F00
1E01
1E02
1E0E
3E3C
FFFC
ENDCHAR

STARTCHAR char77
ENCODING 77
SWIDTH 9 0
DWIDTH 23 0
BBX 26 18 -1 0
BITMAP
0FE00FC0
03E00F80
03E01F00
03E03F00
03E03E00
02E05E00
04E0DE00
04E09C00
04F13C00
0CF33C00
08F63C00
08F47800
18F87800
10F87800
10707000
3060F000
7060F000
F843FC00
ENDCHAR

STARTCHAR char78
ENCODING 78
SWIDTH 28 0
DWIDTH 18 0
BBX 22 18 -1 0
BITMAP
07C07C
03E030
01E030
03F020
02F020
027860
067840
047C40
043CC0
043C80
081E80
081E80
080F80
180F00
100700
100700
300300
FC0200
ENDCHAR

STARTCHAR char79
ENCODING 79
SWIDTH 31 0
DWIDTH 19 0
BBX 16 18 3 0
BITMAP
00F8
030C
060E
0C07
1C07
3807
7807
7007
700F
F00F
E00E
E01E
E01C
E038
E038
6070
70C0
1F00
ENDCHAR

STARTCHAR char80
ENCODING 80
SWIDTH 17 0
DWIDTH 15 0
BBX 17 18 -1 0
BITMAP
07FC00
03FF00
01E700
03C380
03C380
03C380
038780
078F00
079E00
07F800
0F0000
0F0000
0F0000
0E0000
1E0000
1E0000
3E0000
FF0000
ENDCHAR

STARTCHAR char81
ENCODING 81
SWIDTH 31 0
DWIDTH 19 0
BBX 16 22 3 -4
BITMAP
00F8
030C
0606
0C07
1C07
3807
7807
7007
700F
F00E
E00E
E01E
E01C
E038
E038
6070
30C0
1F80
0802
1F82
3FFC
47F0
ENDCHAR

STARTCHAR char82
ENCODING 82
SWIDTH 24 0
DWIDTH 17 0
BBX 17 18 -1 0
BITMAP
07FC00
03EF00
03C780
03C380
03C380
03C380
078700
078F00
07BE00
07F800
0F7800
0F7800
0E3800
1E3C00
1E3C00
1E1C00
3E1E00
FF1F00
ENDCHAR

STARTCHAR char83
ENCODING 83
SWIDTH 17 0
DWIDTH 15 0
BBX 16 18 0 0
BITMAP
00F1
038F
0707
0E02
0E02
0F02
0F80
07C0
07E0
03F0
00F0
2078
6078
6038
6038
7070
70E0
CFC0
ENDCHAR

STARTCHAR char84
ENCODING 84
SWIDTH 10 0
DWIDTH 13 0
BBX 15 18 2 0
BITMAP
3FFE
3FFE
73CC
63C4
4784
0780
0780
0700
0F00
0F00
0F00
1E00
1E00
1E00
1C00
3C00
7C00
FF00
ENDCHAR

STARTCHAR char85
ENCODING 85
SWIDTH 28 0
DWIDTH 18 0
BBX 18 18 3 0
BITMAP
7F8F80
1E0380
1E0300
1C0200
3C0200
3C0600
380400
380400
780C00
780800
700800
F00800
F01800
E01000
E03000
F06000
78C000
1F8000
ENDCHAR

STARTCHAR char86
ENCODING 86
SWIDTH 21 0
DWIDTH 16 0
BBX 16 18 4 0
BITMAP
FC3F
7C1E
380C
3818
7830
7820
7840
78C0
7980
7900
7A00
7C00
7C00
7800
F000
E000
C000
C000
ENDCHAR

STARTCHAR char87
ENCODING 87
SWIDTH 13 0
DWIDTH 24 0
BBX 23 18 4 0
BITMAP
FCFE3E
783C1C
783810
783830
783820
787840
70F8C0
717880
717900
727900
747A00
787C00
787800
F07800
E07000
E07000
C06000
804000
ENDCHAR

STARTCHAR char88
ENCODING 88
SWIDTH 24 0
DWIDTH 17 0
BBX 20 18 -1 0
BITMAP
0FF1F0
03E0E0
03C080
01E100
01E200
00E600
00FC00
00F800
00F000
007800
00F800
01F800
033C00
063C00
0C3C00
181E00
383E00
FC7F80
ENDCHAR

STARTCHAR char89
ENCODING 89
SWIDTH 24 0
DWIDTH 17 0
BBX 18 18 3 0
BITMAP
7F8F80
3E0700
1E0600
1E0400
1E0800
0E1800
0F3000
0F2000
0F4000
078000
078000
0F0000
0F0000
0F0000
0E0000
1E0000
1E0000
FF8000
ENDCHAR

STARTCHAR char90
ENCODING 90
SWIDTH 21 0
DWIDTH 16 0
BBX 19 18 -1 0
BITMAP
07FFE0
0783C0
0607C0
0C0F80
081F00
003E00
003C00
007800
00F800
01F000
03E000
07C000
078000
0F8100
1F0300
3E0600
7C3E00
FFFE00
ENDCHAR

STARTCHAR char91
ENCODING 91
SWIDTH 28 0
DWIDTH 8 0
BBX 12 22 0 -3
BITMAP
03F0
0780
0700
0700
0700
0F00
0E00
0E00
1E00
1C00
1C00
1C00
3C00
3800
3800
7800
7000
7000
F000
F000
F000
FC00
ENDCHAR

STARTCHAR char92
ENCODING 92
SWIDTH 25 0
DWIDTH 7 0
BBX 7 18 0 0
BITMAP
C0
C0
40
40
60
60
20
30
30
10
18
18
08
0C
0C
04
06
06
ENDCHAR

STARTCHAR char93
ENCODING 93
SWIDTH 28 0
DWIDTH 8 0
BBX 12 22 -2 -3
BITMAP
03F0
00F0
00E0
00E0
00E0
01E0
01C0
01C0
01C0
0380
0380
0380
0780
0700
0700
0F00
0E00
0E00
0E00
1E00
1C00
FC00
ENDCHAR

STARTCHAR char94
ENCODING 94
SWIDTH 0 0
DWIDTH 0 0
BBX 8 3 0 19
BITMAP
3F
77
E3
ENDCHAR

STARTCHAR char95
ENCODING 95
SWIDTH 17 0
DWIDTH 15 0
BBX 14 1 0 -3
BITMAP
FFFC
ENDCHAR

STARTCHAR char96
ENCODING 96
SWIDTH 0 0
DWIDTH 0 0
BBX 4 4 0 14
BITMAP
E0
70
30
30
ENDCHAR

STARTCHAR char97
ENCODING 97
SWIDTH 10 0
DWIDTH 13 0
BBX 12 12 1 0
BITMAP
0770
1CF0
38F0
38E0
70E0
71E0
F1C0
E3C0
E3C0
E7D0
FBE0
71C0
ENDCHAR

STARTCHAR char98
ENCODING 98
SWIDTH 6 0
DWIDTH 12 0
BBX 11 18 1 0
BITMAP
0F00
1E00
0E00
0E00
1E00
1C00
1DC0
1FE0
3CE0
38E0
38E0
78E0
71E0
71C0
F1C0
E380
E700
7C00
ENDCHAR

STARTCHAR char99
ENCODING 99
SWIDTH 3 0
DWIDTH 11 0
BBX 10 12 1 0
BITMAP
0780
1CC0
39C0
7180
7000
E000
E000
E000
E080
F180
7F00
3C00
ENDCHAR

STARTCHAR char100
ENCODING 100
SWIDTH 10 0
DWIDTH 13 0
BBX 14 18 1 0
BITMAP
003C
007C
0038
0038
0038
0070
0770
1CF0
38F0
38E0
70E0
71E0
F1C0
E3C0
E3C0
E7D0
FBE0
73C0
ENDCHAR

STARTCHAR char101
ENCODING 101
SWIDTH 3 0
DWIDTH 11 0
BBX 11 12 1 0
BITMAP
07C0
1CE0
38E0
38E0
71C0
F380
FC00
E000
E040
F0C0
7F00
3C00
ENDCHAR

STARTCHAR char102
ENCODING 102
SWIDTH 28 0
DWIDTH 8 0
BBX 17 22 -4 -4
BITMAP
000F80
001D80
003980
003000
007000
00F600
03F800
03F000
00E000
01E000
01C000
01C000
03C000
038000
038000
078000
070000
070000
060000
4E0000
EC0000
F80000
ENDCHAR

STARTCHAR char103
ENCODING 103
SWIDTH 6 0
DWIDTH 12 0
BBX 14 16 -1 -4
BITMAP
07C0
0E7C
1C70
1CF8
1CF0
0CE0
0FC0
1800
3C00
3F80
1FC0
73E0
E0E0
C0E0
E0C0
3F00
ENDCHAR

STARTCHAR char104
ENCODING 104
SWIDTH 13 0
DWIDTH 14 0
BBX 12 18 1 0
BITMAP
0F00
1F00
0E00
0E00
1E00
1C00
1CF0
3DF0
3EF0
3CF0
3CE0
78E0
78E0
71C0
F1C0
F1D0
E1E0
61C0
ENDCHAR

STARTCHAR char105
ENCODING 105
SWIDTH 28 0
DWIDTH 8 0
BBX 6 18 2 0
BITMAP
08
1C
1C
08
00
00
78
78
30
70
70
60
E0
E0
E0
C8
F0
E0
ENDCHAR

STARTCHAR char106
ENCODING 106
SWIDTH 25 0
DWIDTH 7 0
BBX 12 22 -4 -4
BITMAP
0020
0070
0070
0020
0000
0000
03E0
01C0
01C0
01C0
01C0
0380
0380
0380
0700
0700
0700
0E00
0E00
EE00
FC00
7800
ENDCHAR

STARTCHAR char107
ENCODING 107
SWIDTH 10 0
DWIDTH 13 0
BBX 14 18 0 0
BITMAP
0780
0700
0700
0700
0F00
0E00
0E7C
1E30
1C60
1CC0
3DC0
3FC0
3DC0
39C0
79E0
71E8
70F0
70E0
ENDCHAR

STARTCHAR char108
ENCODING 108
SWIDTH 28 0
DWIDTH 8 0
BBX 7 18 2 0
BITMAP
0E
1E
1C
1C
1C
3C
38
38
38
30
70
70
70
60
E0
E8
F0
E0
ENDCHAR

STARTCHAR char109
ENCODING 109
SWIDTH 35 0
DWIDTH 20 0
BBX 20 12 0 0
BITMAP
3D71E0
1EFBE0
1FFEE0
1E7CE0
1E78E0
3C70E0
3CF1C0
38F1C0
78E380
71E3A0
71E3E0
30C180
ENDCHAR

STARTCHAR char110
ENCODING 110
SWIDTH 13 0
DWIDTH 14 0
BBX 12 12 1 0
BITMAP
0470
7CF0
3F70
3C70
3C70
7860
78E0
70E0
F1C0
F1D0
E1F0
61C0
ENDCHAR

STARTCHAR char111
ENCODING 111
SWIDTH 10 0
DWIDTH 13 0
BBX 12 12 1 0
BITMAP
07C0
1C60
3870
7870
7870
F0F0
F0F0
F0E0
E1E0
E1C0
7380
3E00
ENDCHAR

STARTCHAR char112
ENCODING 112
SWIDTH 10 0
DWIDTH 13 0
BBX 14 16 -2 -4
BITMAP
0038
07FC
079C
071C
0F1C
0E1C
0E18
0E38
1E30
1C70
1C60
3F80
3800
3800
7800
FE00
ENDCHAR

STARTCHAR char113
ENCODING 113
SWIDTH 10 0
DWIDTH 13 0
BBX 12 16 1 -4
BITMAP
0770
1CF0
38F0
38E0
70E0
71E0
F1E0
E1C0
E3C0
E7C0
FF80
7380
0780
0700
0700
1FC0
ENDCHAR

STARTCHAR char114
ENCODING 114
SWIDTH 35 0
DWIDTH 10 0
BBX 10 12 1 0
BITMAP
05C0
3BC0
3BC0
3F80
3400
3800
7800
7000
7000
F000
E000
E000
ENDCHAR

STARTCHAR char115
ENCODING 115
SWIDTH 35 0
DWIDTH 10 0
BBX 10 12 0 0
BITMAP
0FC0
18C0
1CC0
1C40
1E00
0F00
0F80
0780
4380
6380
6300
5E00
ENDCHAR

STARTCHAR char116
ENCODING 116
SWIDTH 28 0
DWIDTH 8 0
BBX 8 15 2 0
BITMAP
04
0C
1C
7F
38
38
78
70
70
70
70
E0
E8
F8
E0
ENDCHAR

STARTCHAR char117
ENCODING 117
SWIDTH 13 0
DWIDTH 14 0
BBX 13 12 1 0
BITMAP
0230
3C78
3C70
3C70
38F0
78E0
71E0
71E0
E3C0
E5D0
F9E0
71C0
ENDCHAR

STARTCHAR char118
ENCODING 118
SWIDTH 35 0
DWIDTH 10 0
BBX 10 12 1 0
BITMAP
31C0
F1C0
78C0
38C0
3880
3880
3900
3E00
3C00
3800
3000
3000
ENDCHAR

STARTCHAR char119
ENCODING 119
SWIDTH 21 0
DWIDTH 16 0
BBX 15 12 1 0
BITMAP
30CE
F0CE
71C6
73C6
73C4
77C4
7DC8
79D0
71F0
61C0
6180
4100
ENDCHAR

STARTCHAR char120
ENCODING 120
SWIDTH 10 0
DWIDTH 13 0
BBX 14 12 0 0
BITMAP
0E38
3E7C
0F78
0780
0700
0700
0780
0780
0780
FBD0
F1E0
E1C0
ENDCHAR

STARTCHAR char121
ENCODING 121
SWIDTH 3 0
DWIDTH 11 0
BBX 13 16 -2 -4
BITMAP
0E38
1E38
0F18
0F08
0710
0710
0720
0720
0740
0780
0700
0600
0600
C400
F800
E000
ENDCHAR

STARTCHAR char122
ENCODING 122
SWIDTH 35 0
DWIDTH 10 0
BBX 11 14 0 -2
BITMAP
1FE0
1FC0
3F80
2180
0300
0600
0400
0800
1000
3880
79C0
FDC0
1D80
0700
ENDCHAR

STARTCHAR char123
ENCODING 123
SWIDTH 32 0
DWIDTH 9 0
BBX 6 23 1 -5
BITMAP
1C
38
30
30
30
30
30
30
30
30
60
C0
60
30
30
30
30
30
30
30
30
38
1C
ENDCHAR

STARTCHAR char124
ENCODING 124
SWIDTH 25 0
DWIDTH 7 0
BBX 2 18 2 0
BITMAP
C0
C0
C0
C0
C0
C0
C0
C0
C0
C0
C0
C0
C0
C0
C0
C0
C0
C0
ENDCHAR

STARTCHAR char125
ENCODING 125
SWIDTH 32 0
DWIDTH 9 0
BBX 6 23 1 -5
BITMAP
E0
30
30
30
30
30
30
30
30
38
1C
0C
18
38
30
30
30
30
30
30
30
30
E0
ENDCHAR

STARTCHAR char126
ENCODING 126
SWIDTH 0 0
DWIDTH 0 0
BBX 10 3 0 19
BITMAP
38C0
7F80
0200
ENDCHAR

STARTCHAR char128
ENCODING 128
SWIDTH 6 0
DWIDTH 12 0
BBX 15 17 0 0
BITMAP
007C
01C6
0386
0704
0E04
0E00
1C00
7FF0
1C00
7FE0
3800
3800
3800
3820
3820
38C0
0F00
ENDCHAR

STARTCHAR char130
ENCODING 130
SWIDTH 21 0
DWIDTH 6 0
BBX 5 8 0 -4
BITMAP
10
38
38
18
18
10
60
80
ENDCHAR

STARTCHAR char131
ENCODING 131
SWIDTH 0 0
DWIDTH 0 0
BBX 8 3 0 19
BITMAP
3F
77
E3
ENDCHAR

STARTCHAR char132
ENCODING 132
SWIDTH 6 0
DWIDTH 12 0
BBX 11 8 -1 -4
BITMAP
1060
38E0
38E0
1860
1860
1040
2180
4100
ENDCHAR

STARTCHAR char133
ENCODING 133
SWIDTH 24 0
DWIDTH 27 0
BBX 19 3 3 0
BITMAP
E0E0E0
E0E0E0
E0E0E0
ENDCHAR

STARTCHAR char134
ENCODING 134
SWIDTH 6 0
DWIDTH 12 0
BBX 11 22 3 -4
BITMAP
0300
0700
0700
0600
0600
F5C0
FFE0
EDC0
1C00
1C00
1800
1800
1000
3000
3000
2000
2000
6000
4000
4000
C000
8000
ENDCHAR

STARTCHAR char136
ENCODING 136
SWIDTH 0 0
DWIDTH 0 0
BBX 8 4 -2 14
BITMAP
0E
1E
33
63
ENDCHAR

STARTCHAR char137
ENCODING 137
SWIDTH 16 0
DWIDTH 25 0
BBX 0 0 0 0
BITMAP
ENDCHAR

STARTCHAR char138
ENCODING 138
SWIDTH 16 0
DWIDTH 25 0
BBX 0 0 0 0
BITMAP
ENDCHAR

STARTCHAR char139
ENCODING 139
SWIDTH 32 0
DWIDTH 9 0
BBX 4 8 2 3
BITMAP
10
30
70
C0
C0
60
30
10
ENDCHAR

STARTCHAR char140
ENCODING 140
SWIDTH 16 0
DWIDTH 25 0
BBX 24 18 3 0
BITMAP
00FFFF
03FF1E
0E1F06
1C0F02
1C0F02
381E10
381E10
701E30
701FE0
F03C60
E03C20
E03C20
E07800
E07808
E07818
60F030
71F9F0
1FFFF0
ENDCHAR

STARTCHAR char141
ENCODING 141
SWIDTH 16 0
DWIDTH 25 0
BBX 0 0 0 0
BITMAP
ENDCHAR

STARTCHAR char143
ENCODING 143
SWIDTH 16 0
DWIDTH 25 0
BBX 0 0 0 0
BITMAP
ENDCHAR

STARTCHAR char145
ENCODING 145
SWIDTH 21 0
DWIDTH 6 0
BBX 5 8 5 10
BITMAP
10
20
40
C0
E0
E0
E0
40
ENDCHAR

STARTCHAR char146
ENCODING 146
SWIDTH 21 0
DWIDTH 6 0
BBX 5 8 4 10
BITMAP
10
38
38
18
10
20
C0
80
ENDCHAR

STARTCHAR char147
ENCODING 147
SWIDTH 6 0
DWIDTH 12 0
BBX 11 8 4 10
BITMAP
1860
2080
4100
C300
E380
E380
E380
0100
ENDCHAR

STARTCHAR char148
ENCODING 148
SWIDTH 6 0
DWIDTH 12 0
BBX 10 8 4 10
BITMAP
2080
71C0
71C0
30C0
2080
2080
C300
8200
ENDCHAR

STARTCHAR char149
ENCODING 149
SWIDTH 32 0
DWIDTH 9 0
BBX 7 6 1 6
BITMAP
38
7C
FE
FE
FE
38
ENDCHAR

STARTCHAR char150
ENCODING 150
SWIDTH 6 0
DWIDTH 12 0
BBX 11 3 2 6
BITMAP
FFE0
FFC0
FFC0
ENDCHAR

STARTCHAR char151
ENCODING 151
SWIDTH 24 0
DWIDTH 17 0
BBX 17 2 1 6
BITMAP
FFFF80
FFFF80
ENDCHAR

STARTCHAR char152
ENCODING 152
SWIDTH 0 0
DWIDTH 0 0
BBX 10 3 -2 14
BITMAP
7CC0
7F80
C700
ENDCHAR

STARTCHAR char153
ENCODING 153
SWIDTH 9 0
DWIDTH 23 0
BBX 20 9 0 7
BITMAP
FFF070
89B0A0
1838E0
1828E0
182D60
182D60
182560
182660
3C72F0
ENDCHAR

STARTCHAR char155
ENCODING 155
SWIDTH 32 0
DWIDTH 9 0
BBX 4 8 2 3
BITMAP
80
C0
70
30
30
70
C0
80
ENDCHAR

STARTCHAR char156
ENCODING 156
SWIDTH 28 0
DWIDTH 18 0
BBX 17 12 1 0
BITMAP
0F8F00
1CF380
38F380
78E380
70E700
F0CE00
F1F800
E1C000
E3C100
E3E200
67FC00
3CF800
ENDCHAR

STARTCHAR char157
ENCODING 157
SWIDTH 16 0
DWIDTH 25 0
BBX 0 0 0 0
BITMAP
ENDCHAR

STARTCHAR char159
ENCODING 159
SWIDTH 24 0
DWIDTH 17 0
BBX 16 23 4 0
BITMAP
0410
0E38
0E38
0410
0000
FF3F
7C0E
3C0C
3C08
1C10
1C30
1E60
0E40
0E80
0F00
0F00
0E00
1E00
1E00
1C00
3C00
3C00
FF00
ENDCHAR

STARTCHAR char160
ENCODING 160
SWIDTH 25 0
DWIDTH 7 0
BBX 0 0 0 0
BITMAP
ENDCHAR

STARTCHAR char161
ENCODING 161
SWIDTH 28 0
DWIDTH 8 0
BBX 7 18 1 0
BITMAP
04
0E
0E
04
00
08
10
10
10
10
30
30
70
70
F0
F0
E0
C0
ENDCHAR

STARTCHAR char162
ENCODING 162
SWIDTH 3 0
DWIDTH 11 0
BBX 10 18 1 -3
BITMAP
0100
0100
0100
0780
1EC0
3BC0
7380
7400
F400
E400
E800
F880
F980
7F00
7E00
3000
2000
2000
ENDCHAR

STARTCHAR char163
ENCODING 163
SWIDTH 24 0
DWIDTH 17 0
BBX 15 18 1 0
BITMAP
003C
00EE
01CE
01C4
03C0
03C0
0380
0380
0380
1FF0
0700
0700
0700
0600
7E00
CFC8
DFF0
71E0
ENDCHAR

STARTCHAR char164
ENCODING 164
SWIDTH 0 0
DWIDTH 0 0
BBX 6 3 3 19
BITMAP
3C
70
E0
ENDCHAR

STARTCHAR char165
ENCODING 165
SWIDTH 0 0
DWIDTH 0 0
BBX 8 3 2 19
BITMAP
C7
FE
7C
ENDCHAR

STARTCHAR char166
ENCODING 166
SWIDTH 16 0
DWIDTH 25 0
BBX 0 0 0 0
BITMAP
ENDCHAR

STARTCHAR char167
ENCODING 167
SWIDTH 10 0
DWIDTH 13 0
BBX 13 23 1 -4
BITMAP
00F0
0330
0738
0710
0700
0700
0780
0380
1FC0
39C0
39E0
38E0
38E0
1CE0
1FC0
1E00
0E00
0F00
0700
4700
E700
E600
7C00
ENDCHAR

STARTCHAR char168
ENCODING 168
SWIDTH 0 0
DWIDTH 0 0
BBX 8 4 -1 14
BITMAP
42
E7
E7
42
ENDCHAR

STARTCHAR char169
ENCODING 169
SWIDTH 35 0
DWIDTH 20 0
BBX 18 16 0 0
BITMAP
03F800
0C0C00
100200
21F900
631980
460880
CC08C0
CC00C0
CC00C0
CC00C0
4600C0
671180
21E100
100200
0C0C00
03F800
ENDCHAR

STARTCHAR char170
ENCODING 170
SWIDTH 0 0
DWIDTH 0 0
BBX 10 4 0 19
BITMAP
4180
E1C0
E1C0
4080
ENDCHAR

STARTCHAR char171
ENCODING 171
SWIDTH 10 0
DWIDTH 13 0
BBX 12 12 2 1
BITMAP
0430
0C60
1860
30C0
71C0
E380
E300
E380
6180
6180
2180
3080
ENDCHAR

STARTCHAR char172
ENCODING 172
SWIDTH 28 0
DWIDTH 18 0
BBX 16 7 0 0
BITMAP
FFFF
0003
0003
0003
0003
0003
0003
ENDCHAR

STARTCHAR char174
ENCODING 174
SWIDTH 35 0
DWIDTH 20 0
BBX 18 16 0 0
BITMAP
03F000
0C0C00
100200
27F100
631980
431880
C338C0
C3C0C0
C360C0
C370C0
4330C0
631880
279D00
100300
0C0400
03F800
ENDCHAR

STARTCHAR char175
ENCODING 175
SWIDTH 16 0
DWIDTH 25 0
BBX 0 0 0 0
BITMAP
ENDCHAR

STARTCHAR char176
ENCODING 176
SWIDTH 25 0
DWIDTH 7 0
BBX 9 8 3 9
BITMAP
1C00
2200
4300
C180
C180
4100
2200
1C00
ENDCHAR

STARTCHAR char177
ENCODING 177
SWIDTH 13 0
DWIDTH 14 0
BBX 13 16 0 0
BITMAP
0600
0600
0600
0600
0600
0600
FFF8
0600
0600
0600
0600
0600
0600
0000
0000
FFF8
ENDCHAR

STARTCHAR char179
ENCODING 179
SWIDTH 16 0
DWIDTH 25 0
BBX 0 0 0 0
BITMAP
ENDCHAR

STARTCHAR char180
ENCODING 180
SWIDTH 0 0
DWIDTH 0 0
BBX 6 4 1 14
BITMAP
38
30
60
40
ENDCHAR

STARTCHAR char182
ENCODING 182
SWIDTH 28 0
DWIDTH 18 0
BBX 11 21 2 -4
BITMAP
1FE0
3C60
7C60
FC60
FC60
FC60
7C60
7C60
3C60
0C60
0C60
0C60
0C60
0C60
0C60
0C60
0C60
0C60
0C60
0C60
0C60
ENDCHAR

STARTCHAR char183
ENCODING 183
SWIDTH 14 0
DWIDTH 4 0
BBX 3 3 2 6
BITMAP
60
E0
60
ENDCHAR

STARTCHAR char184
ENCODING 184
SWIDTH 0 0
DWIDTH 0 0
BBX 6 5 -4 -5
BITMAP
18
38
3C
1C
F8
ENDCHAR

STARTCHAR char186
ENCODING 186
SWIDTH 0 0
DWIDTH 0 0
BBX 10 3 0 19
BITMAP
38C0
7F80
0200
ENDCHAR

STARTCHAR char187
ENCODING 187
SWIDTH 10 0
DWIDTH 13 0
BBX 12 12 0 1
BITMAP
1040
1840
1860
1C60
0C70
0C70
1C70
1C60
38C0
31C0
6180
4300
ENDCHAR

STARTCHAR char189
ENCODING 189
SWIDTH 16 0
DWIDTH 25 0
BBX 0 0 0 0
BITMAP
ENDCHAR

STARTCHAR char191
ENCODING 191
SWIDTH 6 0
DWIDTH 12 0
BBX 9 18 1 0
BITMAP
0100
0380
0380
0100
0000
0100
0100
0200
0400
0C00
3800
7800
7000
E600
E600
E600
6600
3C00
ENDCHAR

STARTCHAR char192
ENCODING 192
SWIDTH 24 0
DWIDTH 17 0
BBX 16 22 -1 0
BITMAP
003C
001C
0004
0000
0001
0003
0007
000F
000F
0017
0027
0067
00C6
008E
010E
03FE
060E
040E
080E
180E
381E
FC7F
ENDCHAR

STARTCHAR char193
ENCODING 193
SWIDTH 24 0
DWIDTH 17 0
BBX 17 22 -1 0
BITMAP
000780
000700
000C00
000000
000100
000300
000700
000F00
000F00
001700
002700
006700
00C600
008E00
010E00
03FE00
060E00
040E00
080E00
180E00
381E00
FC7F00
ENDCHAR

STARTCHAR char194
ENCODING 194
SWIDTH 24 0
DWIDTH 17 0
BBX 16 22 -1 0
BITMAP
001F
003B
0061
0000
0001
0003
0007
000F
000F
0017
0027
0067
00C6
008E
010E
03FE
060E
040E
080E
180E
381E
FC7F
ENDCHAR

STARTCHAR char195
ENCODING 195
SWIDTH 24 0
DWIDTH 17 0
BBX 18 22 -1 0
BITMAP
003840
007F80
000100
000000
000100
000300
000700
000F00
000F00
001700
002700
006700
00C600
008E00
010E00
03FE00
060E00
040E00
080E00
180E00
381E00
FC7F00
ENDCHAR

STARTCHAR char196
ENCODING 196
SWIDTH 24 0
DWIDTH 17 0
BBX 21 23 -1 0
BITMAP
000C10
000E38
001E38
000C10
000000
000100
000300
000300
000700
000F00
001F00
002F00
006F00
004E00
008E00
010E00
03FE00
061E00
041E00
081E00
181E00
381E00
FC7F00
ENDCHAR

STARTCHAR char197
ENCODING 197
SWIDTH 24 0
DWIDTH 17 0
BBX 19 23 -1 0
BITMAP
0003C0
000660
000660
0003C0
000000
000100
000300
000700
000700
000F00
001F00
002F00
006F00
004F00
008E00
010E00
03FE00
061E00
041E00
081E00
181E00
381E00
7C7F00
ENDCHAR

STARTCHAR char198
ENCODING 198
SWIDTH 13 0
DWIDTH 24 0
BBX 26 18 -1 0
BITMAP
001FFFC0
0007E780
0007C180
000FC080
001BC080
00138400
00278400
00478C00
00C7FC00
018F1800
010F0800
03FF0800
041E0000
0C1E0200
181E0600
181E0E00
303E3C00
FCFFFC00
ENDCHAR

STARTCHAR char199
ENCODING 199
SWIDTH 28 0
DWIDTH 18 0
BBX 17 23 3 -5
BITMAP
00FF80
038780
0F0300
1E0300
3C0100
380000
780000
700000
F00000
E00000
E00000
E00000
E00000
F00000
700400
780800
3C3000
0FC000
080000
180000
1C0000
0C0000
780000
ENDCHAR

STARTCHAR char200
ENCODING 200
SWIDTH 21 0
DWIDTH 16 0
BBX 18 22 -1 0
BITMAP
007800
003800
000C00
000000
07FFC0
03E3C0
01E1C0
03C080
03C080
03C200
038400
078C00
07FC00
071C00
0F0800
0F0800
0F0000
1E0100
1E0200
1E0600
3E1E00
7FFC00
ENDCHAR

STARTCHAR char201
ENCODING 201
SWIDTH 21 0
DWIDTH 16 0
BBX 18 22 -1 0
BITMAP
000F00
001E00
001800
000000
07FFC0
03E3C0
01E1C0
03C080
03C080
03C200
038400
078C00
07FC00
071C00
0F0800
0F0800
0F0000
1E0100
1E0200
1E0600
3E1E00
7FFC00
ENDCHAR

STARTCHAR char202
ENCODING 202
SWIDTH 21 0
DWIDTH 16 0
BBX 18 22 -1 0
BITMAP
003E00
007600
00C300
000000
07FFC0
03E3C0
01E1C0
03C080
03C080
03C200
038400
078C00
07FC00
071C00
0F0800
0F0800
0F0000
1E0100
1E0200
1E0600
3E1E00
7FFC00
ENDCHAR

STARTCHAR char203
ENCODING 203
SWIDTH 21 0
DWIDTH 16 0
BBX 18 23 -1 0
BITMAP
004100
00E380
00E380
004100
000000
07FFC0
03E3C0
01E180
03C080
03C080
03C400
03C400
07CC00
07F800
070800
0F0800
0F0800
0F0000
1E0200
1E0600
1E0E00
3E1C00
7FFC00
ENDCHAR

STARTCHAR char204
ENCODING 204
SWIDTH 32 0
DWIDTH 9 0
BBX 12 22 0 0
BITMAP
0780
01C0
00C0
0000
0FF0
07E0
03C0
03C0
0780
0780
0780
0F00
0F00
0F00
0E00
1E00
1E00
1E00
3C00
3C00
3C00
7F00
ENDCHAR

STARTCHAR char205
ENCODING 205
SWIDTH 32 0
DWIDTH 9 0
BBX 13 22 0 0
BITMAP
00F0
00E0
0180
0000
0FF0
07E0
03C0
03C0
0780
0780
0780
0F00
0F00
0F00
0E00
1E00
1E00
1E00
3C00
3C00
3C00
7F00
ENDCHAR

STARTCHAR char206
ENCODING 206
SWIDTH 32 0
DWIDTH 9 0
BBX 12 22 0 0
BITMAP
03E0
0770
0C30
0000
0FF0
07E0
03C0
03C0
0780
0780
0780
0F00
0F00
0F00
0E00
1E00
1E00
1E00
3C00
3C00
3C00
7F00
ENDCHAR

STARTCHAR char207
ENCODING 207
SWIDTH 32 0
DWIDTH 9 0
BBX 13 23 0 0
BITMAP
0410
0E38
0E38
0410
0000
0FF0
03C0
03C0
0380
0380
0780
0780
0700
0F00
0F00
0E00
1E00
1E00
1C00
3C00
3C00
3C00
7F00
ENDCHAR

STARTCHAR char209
ENCODING 209
SWIDTH 28 0
DWIDTH 18 0
BBX 22 22 -1 0
BITMAP
001C60
007F80
000100
000000
07C07C
03E030
01E030
03F020
02F020
027860
067840
047C40
043CC0
043C80
081E80
081E80
080F80
180F00
100700
100700
300300
FC0200
ENDCHAR

STARTCHAR char210
ENCODING 210
SWIDTH 31 0
DWIDTH 19 0
BBX 16 22 3 0
BITMAP
01E0
00E0
0030
0000
00F8
030C
060E
0C07
1C07
3807
7807
7007
700F
F00F
E00E
E01E
E01C
E038
E038
6070
70C0
1F00
ENDCHAR

STARTCHAR char211
ENCODING 211
SWIDTH 31 0
DWIDTH 19 0
BBX 16 22 3 0
BITMAP
003C
0070
0060
0000
00F8
030C
060E
0C07
1C07
3807
7807
7007
700F
F00F
E00E
E01E
E01C
E038
E038
6070
70C0
1F00
ENDCHAR

STARTCHAR char212
ENCODING 212
SWIDTH 31 0
DWIDTH 19 0
BBX 16 22 3 0
BITMAP
00F8
01D8
0308
0000
00F8
030C
060E
0C07
1C07
3807
7807
7007
700F
F00F
E00E
E01E
E01C
E038
E038
6070
70C0
1F00
ENDCHAR

STARTCHAR char213
ENCODING 213
SWIDTH 31 0
DWIDTH 19 0
BBX 16 22 3 0
BITMAP
01FC
0238
0000
0000
00F8
030C
060E
0C07
1C07
3807
7807
7007
700F
F00F
E00E
E01E
E01C
E038
E038
6070
70C0
1F00
ENDCHAR

STARTCHAR char214
ENCODING 214
SWIDTH 31 0
DWIDTH 19 0
BBX 17 23 3 0
BITMAP
000200
018300
01C700
008200
000000
00F800
030C00
060E00
0C0700
1C0700
380780
780780
700F00
700F00
F00F00
E00F00
E01E00
E01C00
E03C00
E03800
607000
70C000
1F0000
ENDCHAR

STARTCHAR char216
ENCODING 216
SWIDTH 31 0
DWIDTH 19 0
BBX 18 20 2 -1
BITMAP
000040
007CC0
018780
070700
0E0780
1E0F80
1C1B80
3C1780
782780
784780
788780
790780
FB0F00
F60F00
FC1E00
781C00
783800
787000
CFC000
800000
ENDCHAR

STARTCHAR char217
ENCODING 217
SWIDTH 28 0
DWIDTH 18 0
BBX 18 22 3 0
BITMAP
01C000
00E000
006000
000000
7F8FC0
1E0380
1E0300
1C0200
3C0200
3C0600
380400
380400
780C00
780800
700800
F00800
F01800
E01000
E03000
F06000
78C000
1F8000
ENDCHAR

STARTCHAR char218
ENCODING 218
SWIDTH 28 0
DWIDTH 18 0
BBX 18 22 3 0
BITMAP
007800
007000
00E000
000000
7F8FC0
1E0380
1E0300
1C0200
3C0200
3C0600
380400
380400
780C00
780800
700800
F00800
F01800
E01000
E03000
F06000
78C000
1F8000
ENDCHAR

STARTCHAR char219
ENCODING 219
SWIDTH 28 0
DWIDTH 18 0
BBX 18 22 3 0
BITMAP
01F000
03B800
071800
000000
7F8FC0
1E0380
1E0300
1C0200
3C0200
3C0600
380400
380400
780C00
780800
700800
F00800
F01800
E01000
E03000
F06000
78C000
1F8000
ENDCHAR

STARTCHAR char220
ENCODING 220
SWIDTH 28 0
DWIDTH 18 0
BBX 18 23 3 0
BITMAP
010200
038700
038700
010200
000000
7F8FC0
1E0380
1C0100
1C0200
3C0200
380200
380200
380400
780400
700400
700800
F00800
F01800
E01000
E03000
F06000
78C000
1F8000
ENDCHAR

STARTCHAR char221
ENCODING 221
SWIDTH 16 0
DWIDTH 25 0
BBX 0 0 0 0
BITMAP
ENDCHAR

STARTCHAR char222
ENCODING 222
SWIDTH 16 0
DWIDTH 25 0
BBX 0 0 0 0
BITMAP
ENDCHAR

STARTCHAR char223
ENCODING 223
SWIDTH 13 0
DWIDTH 14 0
BBX 19 23 -5 -4
BITMAP
000780
000CC0
001CE0
0038E0
0078E0
0070E0
0071C0
00F380
00E700
00E3C0
00E1C0
01E1C0
01C1C0
01C3C0
03C380
038380
03A700
07E600
073C00
070000
EE0000
EC0000
780000
ENDCHAR

STARTCHAR char224
ENCODING 224
SWIDTH 10 0
DWIDTH 13 0
BBX 12 18 1 0
BITMAP
0700
0300
0380
0180
0000
0000
0770
1CF0
38F0
38E0
70E0
71E0
F1C0
E3C0
E3C0
E7D0
FBE0
71C0
ENDCHAR

STARTCHAR char225
ENCODING 225
SWIDTH 10 0
DWIDTH 13 0
BBX 12 18 1 0
BITMAP
00E0
01C0
0180
0300
0000
0000
0770
1CF0
38F0
38E0
70E0
71E0
F1C0
E3C0
E3C0
E7D0
FBE0
71C0
ENDCHAR

STARTCHAR char226
ENCODING 226
SWIDTH 10 0
DWIDTH 13 0
BBX 12 18 1 0
BITMAP
03C0
07C0
0EC0
1860
0000
0000
0770
1CF0
38F0
38E0
70E0
71E0
F1C0
E3C0
E3C0
E7D0
FBE0
71C0
ENDCHAR

STARTCHAR char227
ENCODING 227
SWIDTH 10 0
DWIDTH 13 0
BBX 13 17 1 0
BITMAP
0790
0FF0
10E0
0000
0000
0770
1CF0
38F0
38E0
70E0
71E0
F1C0
E3C0
E3C0
E7D0
FBE0
71C0
ENDCHAR

STARTCHAR char228
ENCODING 228
SWIDTH 10 0
DWIDTH 13 0
BBX 13 18 1 0
BITMAP
0210
0738
0238
0000
0000
0000
0770
1CF0
39E0
39E0
71E0
71E0
F1C0
E3C0
E3C0
E7D0
FBE0
7180
ENDCHAR

STARTCHAR char229
ENCODING 229
SWIDTH 10 0
DWIDTH 13 0
BBX 12 18 1 0
BITMAP
01E0
0330
0330
01E0
0000
0000
0F70
1CF0
38F0
38E0
71E0
71E0
F3C0
E3C0
E7C0
E7D0
FBE0
71C0
ENDCHAR

STARTCHAR char230
ENCODING 230
SWIDTH 24 0
DWIDTH 17 0
BBX 17 12 0 0
BITMAP
07CF00
1CF380
3CE380
18E380
01E700
1FCE00
71F800
71C000
E3C100
E7C200
FDFC00
70F000
ENDCHAR

STARTCHAR char231
ENCODING 231
SWIDTH 3 0
DWIDTH 11 0
BBX 11 17 1 -5
BITMAP
03C0
0C60
18E0
38C0
3000
7000
7000
7000
7040
70C0
3F80
3E00
1000
3800
1800
1800
F000
ENDCHAR

STARTCHAR char232
ENCODING 232
SWIDTH 3 0
DWIDTH 11 0
BBX 11 18 1 0
BITMAP
1E00
0E00
0700
0300
0000
0000
07C0
1CE0
38E0
38E0
71C0
F380
FC00
E000
E040
F0C0
7F00
3C00
ENDCHAR

STARTCHAR char233
ENCODING 233
SWIDTH 3 0
DWIDTH 11 0
BBX 11 18 1 0
BITMAP
01C0
0180
0300
0200
0000
0000
07C0
1CE0
38E0
38E0
71C0
F380
FC00
E000
E040
F0C0
7F00
3E00
ENDCHAR

STARTCHAR char234
ENCODING 234
SWIDTH 3 0
DWIDTH 11 0
BBX 11 18 1 0
BITMAP
0780
0780
0DC0
30C0
0000
0000
07C0
1CE0
38E0
38E0
71C0
F380
FC00
E000
E040
F0C0
7F00
3C00
ENDCHAR

STARTCHAR char235
ENCODING 235
SWIDTH 3 0
DWIDTH 11 0
BBX 11 18 1 0
BITMAP
0840
1CE0
1CE0
0820
0000
0000
07C0
0CE0
18E0
30C0
71C0
7300
7C00
E000
E080
7080
7F00
3E00
ENDCHAR

STARTCHAR char236
ENCODING 236
SWIDTH 28 0
DWIDTH 8 0
BBX 6 18 2 0
BITMAP
30
38
18
08
00
00
3C
38
38
38
30
70
70
70
E0
E8
F0
E0
ENDCHAR

STARTCHAR char237
ENCODING 237
SWIDTH 28 0
DWIDTH 8 0
BBX 8 18 2 0
BITMAP
07
0E
0C
18
00
00
3C
38
38
38
38
70
70
70
E0
E8
F8
E0
ENDCHAR

STARTCHAR char238
ENCODING 238
SWIDTH 28 0
DWIDTH 8 0
BBX 8 18 2 0
BITMAP
1E
3E
76
C2
00
00
3C
3C
38
38
38
78
70
70
F0
E4
F8
F0
ENDCHAR

STARTCHAR char239
ENCODING 239
SWIDTH 28 0
DWIDTH 8 0
BBX 8 18 2 0
BITMAP
22
77
77
21
00
00
38
38
38
38
30
70
70
F0
E0
EC
F0
F0
ENDCHAR

STARTCHAR char241
ENCODING 241
SWIDTH 13 0
DWIDTH 14 0
BBX 13 17 1 0
BITMAP
0718
0FF0
0840
0000
0000
1C70
7CF0
3F70
3C70
3C70
7860
78E0
70E0
F1C0
F1D0
E1F0
61C0
ENDCHAR

STARTCHAR char242
ENCODING 242
SWIDTH 10 0
DWIDTH 13 0
BBX 12 18 1 0
BITMAP
0700
0700
0380
0180
0000
0000
07C0
1C60
3870
7870
7870
F0F0
F0F0
F0E0
E1E0
E1C0
7380
3E00
ENDCHAR

STARTCHAR char243
ENCODING 243
SWIDTH 10 0
DWIDTH 13 0
BBX 12 18 1 0
BITMAP
00E0
01C0
0180
0300
0000
0000
07C0
1C60
3870
7870
7870
F0F0
F0F0
F0E0
E1E0
E1C0
7380
3E00
ENDCHAR

STARTCHAR char244
ENCODING 244
SWIDTH 10 0
DWIDTH 13 0
BBX 12 18 1 0
BITMAP
03C0
07C0
0EC0
1860
0000
0000
07C0
1C60
3870
7870
7870
F0F0
F0F0
F0E0
E1E0
E1C0
7380
3E00
ENDCHAR

STARTCHAR char245
ENCODING 245
SWIDTH 10 0
DWIDTH 13 0
BBX 13 17 1 0
BITMAP
0718
1FF0
1040
0000
0000
07C0
1C60
3870
7870
7870
F0F0
F0F0
F0E0
E1E0
E1C0
7380
3E00
ENDCHAR

STARTCHAR char246
ENCODING 246
SWIDTH 10 0
DWIDTH 13 0
BBX 13 18 1 0
BITMAP
0210
0738
0210
0000
0000
0000
07C0
1CE0
3870
7870
7070
F0F0
F0F0
E0E0
E0E0
E1C0
7380
3E00
ENDCHAR

STARTCHAR char247
ENCODING 247
SWIDTH 13 0
DWIDTH 14 0
BBX 13 9 0 2
BITMAP
0700
0700
0700
0000
FFF8
0000
0700
0700
0700
ENDCHAR

STARTCHAR char248
ENCODING 248
SWIDTH 10 0
DWIDTH 13 0
BBX 13 14 0 -1
BITMAP
0008
03D0
0E70
1C70
3CF8
39F8
7970
7A70
7CF0
78E0
71E0
31C0
3F00
4000
ENDCHAR

STARTCHAR char249
ENCODING 249
SWIDTH 13 0
DWIDTH 14 0
BBX 13 18 1 0
BITMAP
0700
0380
0180
0180
0000
0000
3C78
3C70
3C70
38F0
38F0
78E0
71E0
71E0
E3C0
E5D0
F9E0
71C0
ENDCHAR

STARTCHAR char250
ENCODING 250
SWIDTH 13 0
DWIDTH 14 0
BBX 13 18 1 0
BITMAP
00F0
00E0
01C0
0180
0000
0000
3C78
3C70
3C70
38F0
38F0
78E0
71E0
71E0
E3C0
E5D0
F9E0
71C0
ENDCHAR

STARTCHAR char251
ENCODING 251
SWIDTH 13 0
DWIDTH 14 0
BBX 13 18 1 0
BITMAP
01C0
03C0
0660
0C60
0000
0000
3C78
3C70
3C70
38F0
38F0
78E0
71E0
71E0
E3C0
E5D0
F9E0
71C0
ENDCHAR

STARTCHAR char252
ENCODING 252
SWIDTH 13 0
DWIDTH 14 0
BBX 13 18 1 0
BITMAP
0310
0738
0238
0000
0000
0000
3C78
3C78
3C70
38F0
38F0
78E0
71E0
71E0
F3C0
E5D8
F9E0
71C0
ENDCHAR

STARTCHAR char255
ENCODING 255
SWIDTH 3 0
DWIDTH 11 0
BBX 15 22 -3 -4
BITMAP
0088
01DC
01CE
0084
0000
0000
071C
0F1C
078C
0784
0388
0388
0390
0390
03A0
03C0
0380
0300
0200
6200
7C00
7000
ENDCHAR
ENDFONT
